<?xml version="1.0" encoding="iso-8859-1"?>
<!-- Generator: Adobe Illustrator 19.0.0, SVG Export Plug-In . SVG Version: 6.00 Build 0)  -->
<svg version="1.1" id="Layer_1" xmlns="http://www.w3.org/2000/svg" xmlns:xlink="http://www.w3.org/1999/xlink" x="0px" y="0px"
	 viewBox="0 0 512 512" style="enable-background:new 0 0 512 512;" xml:space="preserve">
<g>
	<g>
		<g>
			<path fill="#fff" d="M205.187,266.206c-21.597,0-39.167,17.571-39.167,39.167c0,21.596,17.57,39.167,39.167,39.167
				s39.167-17.571,39.167-39.167C244.354,283.777,226.784,266.206,205.187,266.206z M205.187,324.14
				c-10.349,0-18.769-8.419-18.769-18.769c0-10.349,8.419-18.769,18.769-18.769s18.769,8.419,18.769,18.769
				C223.956,315.721,215.536,324.14,205.187,324.14z"/>
			<path fill="#fff" d="M509.013,312.88L263.213,67.079c-3.984-3.981-10.441-3.981-14.425,0L2.987,312.88c-3.983,3.984-3.983,10.442,0,14.425
				l26.974,26.974C90.338,414.655,170.614,447.907,256,447.907c85.387,0,165.662-33.25,226.04-93.628l26.974-26.974
				C512.996,323.321,512.996,316.863,509.013,312.88z M467.613,339.855c-56.523,56.524-131.677,87.653-211.614,87.653
				s-155.09-31.128-211.614-87.653l-19.762-19.762L256,88.717l231.375,231.376L467.613,339.855z"/>
			<path fill="#fff" d="M381.634,307.918c14.381,0,26.08-11.701,26.08-26.08c0-14.38-11.701-26.08-26.08-26.08s-26.08,11.701-26.08,26.08
				C355.553,296.218,367.253,307.918,381.634,307.918z M381.634,276.156c3.133,0,5.682,2.549,5.682,5.682
				c0,3.133-2.549,5.682-5.682,5.682s-5.682-2.549-5.682-5.682C375.952,278.705,378.5,276.156,381.634,276.156z"/>
			<path fill="#fff" d="M232.504,184.752c0,16.359,13.31,29.669,29.67,29.669s29.669-13.31,29.669-29.669c0-16.36-13.31-29.669-29.669-29.669
				C245.814,155.082,232.504,168.392,232.504,184.752z M262.173,175.481c5.112,0,9.271,4.159,9.271,9.271
				c0,5.112-4.159,9.271-9.271,9.271s-9.271-4.159-9.271-9.271C252.902,179.64,257.062,175.481,262.173,175.481z"/>
		</g>
	</g>
</g>
<g>
</g>
<g>
</g>
<g>
</g>
<g>
</g>
<g>
</g>
<g>
</g>
<g>
</g>
<g>
</g>
<g>
</g>
<g>
</g>
<g>
</g>
<g>
</g>
<g>
</g>
<g>
</g>
<g>
</g>
</svg>
